<?xml version="1.0" standalone="no"?>
<!DOCTYPE svg PUBLIC "-//W3C//DTD SVG 20010904//EN"
 "http://www.w3.org/TR/2001/REC-SVG-20010904/DTD/svg10.dtd">
<svg version="1.0" xmlns="http://www.w3.org/2000/svg"
 width="700.000000pt" height="700.000000pt" viewBox="0 0 700.000000 700.000000"
 preserveAspectRatio="xMidYMid meet">
<metadata>
Created by potrace 1.11, written by Peter Selinger 2001-2013
</metadata>
<g transform="translate(0.000000,700.000000) scale(0.100000,-0.100000)"
fill="#000000" stroke="none">
<path d="M2157 5903 c-1 0 -31 -4 -67 -8 -425 -45 -741 -310 -845 -710 -33
-129 -37 -184 -40 -520 -3 -330 -14 -421 -59 -517 -51 -107 -143 -174 -277
-202 l-64 -13 -2 -425 c-1 -322 1 -425 10 -425 43 -3 130 -27 174 -48 120 -59
177 -155 209 -350 3 -22 8 -179 9 -350 3 -316 10 -392 46 -525 78 -286 293
-520 570 -621 169 -62 281 -74 654 -74 l290 0 3 418 2 417 -168 0 c-191 0
-234 9 -300 66 -23 19 -53 60 -69 92 l-28 57 -1 385 c-1 212 -4 408 -7 435
-29 234 -156 401 -372 487 -27 11 -59 22 -69 24 -24 4 -42 21 -23 21 8 0 41
10 73 23 165 66 268 156 332 290 22 47 43 101 46 120 3 19 8 53 12 75 3 22 7
218 8 435 2 376 3 397 22 441 29 63 79 116 133 142 41 20 65 22 229 25 l182 4
-2 416 -3 417 -303 0 c-167 0 -304 -1 -305 -2z"/>
<path d="M4243 5897 c-6 -10 -8 -815 -2 -821 2 -2 87 -6 189 -8 182 -4 186 -4
233 -32 60 -36 102 -87 124 -151 14 -43 17 -104 19 -450 2 -445 7 -492 66
-613 42 -85 141 -187 228 -234 64 -35 167 -74 183 -70 5 1 6 -2 3 -7 -4 -5
-21 -12 -39 -16 -60 -13 -192 -83 -248 -134 -31 -28 -72 -74 -91 -103 -39 -59
-83 -170 -94 -238 -4 -25 -8 -223 -10 -440 -1 -217 -4 -404 -7 -416 -13 -52
-53 -118 -92 -149 -67 -55 -102 -63 -291 -65 -92 0 -170 -3 -172 -5 -3 -2 -5
-187 -5 -410 0 -286 3 -409 11 -414 14 -8 574 -6 662 3 500 50 844 402 885
904 4 46 8 210 10 365 3 322 13 394 63 493 33 65 69 101 135 138 63 34 82 41
153 52 21 3 42 8 45 9 3 2 5 194 5 426 -1 367 -3 422 -16 425 -174 29 -268 89
-324 207 -51 109 -58 168 -62 487 -3 337 -8 417 -34 528 -82 348 -317 599
-651 696 -149 43 -211 48 -572 50 -167 1 -301 -2 -304 -7z"/>
</g>
</svg>
