<?xml version="1.0" standalone="no"?>
<!DOCTYPE svg PUBLIC "-//W3C//DTD SVG 20010904//EN"
 "http://www.w3.org/TR/2001/REC-SVG-20010904/DTD/svg10.dtd">
<svg version="1.0" xmlns="http://www.w3.org/2000/svg"
 width="700.000000pt" height="700.000000pt" viewBox="0 0 700.000000 700.000000"
 preserveAspectRatio="xMidYMid meet">
<metadata>
Created by potrace 1.11, written by Peter Selinger 2001-2013
</metadata>
<g transform="translate(0.000000,700.000000) scale(0.100000,-0.100000)"
fill="#000000" stroke="none">
<path d="M569 6600 c0 -8 0 -1410 -1 -3115 l0 -3100 2776 -2 2776 -1 1 26 c0
15 0 1009 0 2210 l1 2182 56 1 c31 0 225 0 430 0 l372 0 1 27 c1 35 1 447 0
493 l-1 36 -1170 0 c-832 0 -1170 -3 -1171 -11 -1 -14 -1 -529 0 -538 1 -4
173 -7 384 -7 210 0 405 0 432 0 l50 -1 0 -1900 0 -1900 -2160 2 -2160 3 0
2495 0 2495 2463 2 c1355 0 2466 3 2469 6 7 8 6 597 -2 605 -4 4 -1253 7
-2776 7 -2461 0 -2769 -2 -2770 -15z"/>
<path d="M3250 5403 c-440 -66 -754 -306 -879 -671 -54 -157 -68 -356 -35
-502 3 -14 8 -36 10 -50 15 -80 92 -255 156 -348 76 -113 253 -300 341 -361
12 -8 31 -24 42 -34 20 -19 331 -227 339 -227 9 0 163 -104 236 -160 209 -159
300 -308 294 -478 -6 -192 -118 -334 -292 -371 -225 -47 -419 51 -581 293 -40
60 -110 192 -122 233 -4 10 -213 -69 -534 -202 -22 -9 -50 -21 -63 -26 l-22
-9 25 -65 c75 -199 177 -360 323 -508 98 -100 192 -168 325 -235 253 -127 605
-154 917 -71 299 79 532 258 657 504 81 159 115 304 117 500 4 381 -196 722
-600 1021 -73 53 -330 224 -338 224 -8 0 -210 141 -256 179 -159 129 -235 258
-239 407 -3 103 25 173 99 245 46 44 72 60 126 78 173 57 365 0 488 -144 52
-60 115 -160 138 -220 11 -27 21 -39 32 -37 15 3 268 99 324 122 49 22 71 30
166 67 54 20 101 43 103 51 7 17 -39 127 -90 217 -177 311 -450 503 -802 565
-92 16 -334 24 -405 13z"/>
</g>
</svg>
